<?xml version="1.0" standalone="no"?>
<!DOCTYPE svg PUBLIC "-//W3C//DTD SVG 20010904//EN"
 "http://www.w3.org/TR/2001/REC-SVG-20010904/DTD/svg10.dtd">
<svg version="1.0" xmlns="http://www.w3.org/2000/svg"
 width="1080.000000pt" height="1080.000000pt" viewBox="0 0 1080.000000 1080.000000"
 preserveAspectRatio="xMidYMid meet">
<metadata>
Created by potrace 1.14, written by Peter Selinger 2001-2017
</metadata>
<g transform="translate(0.000000,1080.000000) scale(0.100000,-0.100000)"
fill="#000000" stroke="none">
<path d="M5393 6742 c-56 -37 -113 -78 -127 -91 -34 -32 -34 -74 0 -108 34
-34 74 -27 154 27 41 28 62 37 65 28 2 -7 11 -42 19 -78 24 -98 89 -222 138
-264 60 -52 138 -80 226 -80 67 -1 73 -3 70 -21 -3 -18 -10 -20 -88 -19 -74 0
-94 5 -150 32 -36 17 -84 47 -107 66 -22 20 -44 36 -47 36 -3 0 -6 -74 -6
-165 l0 -165 133 0 c160 0 200 10 249 61 l37 39 206 0 205 0 0 235 0 235 -207
0 -208 0 -57 68 c-104 122 -123 137 -253 186 -66 25 -127 46 -135 45 -8 0 -61
-31 -117 -67z"/>
<path d="M5144 6479 c-47 -24 -56 -87 -19 -124 23 -24 28 -25 173 -25 136 0
152 2 176 21 32 25 35 75 7 110 -18 23 -25 24 -168 26 -90 2 -156 -2 -169 -8z"/>
<path d="M5103 6278 c-31 -15 -46 -63 -30 -96 22 -47 48 -53 225 -50 159 3
164 4 183 27 28 35 25 85 -7 110 -25 19 -39 21 -188 20 -92 0 -170 -5 -183
-11z"/>
<path d="M5224 6086 c-43 -19 -61 -64 -40 -104 8 -16 23 -32 31 -36 9 -3 68
-6 131 -6 101 0 116 2 134 20 21 21 26 69 10 100 -5 10 -24 23 -41 29 -44 15
-187 13 -225 -3z"/>
<path d="M4691 5926 l-23 -25 88 -91 88 -91 25 25 25 26 -84 88 c-47 49 -88
90 -91 91 -3 0 -16 -10 -28 -23z"/>
<path d="M5310 5790 l0 -100 -170 0 -170 0 0 -155 0 -155 435 0 435 0 0 155 0
155 -170 0 -169 0 -3 98 -3 97 -92 3 -93 3 0 -101z"/>
<path d="M4445 5760 c-15 -29 -14 -30 12 -43 42 -22 381 -177 386 -177 6 0 31
60 26 63 -5 4 -336 156 -376 173 -31 14 -33 13 -48 -16z"/>
<path d="M6095 5673 c-77 -37 -142 -68 -144 -70 -5 -3 20 -63 27 -63 3 0 70
31 149 70 l144 69 -16 31 c-8 16 -17 30 -18 30 -1 0 -65 -30 -142 -67z"/>
<path d="M4447 5444 c-4 -4 -7 -20 -7 -36 l0 -28 201 0 200 0 -3 33 -3 32
-191 3 c-104 1 -193 -1 -197 -4z"/>
<path d="M5960 5415 l0 -35 195 0 195 0 0 35 0 35 -195 0 -195 0 0 -35z"/>
<path d="M6660 5255 l0 -55 850 0 850 0 0 55 0 55 -850 0 -850 0 0 -55z"/>
<path d="M2400 5230 l0 -60 915 0 915 0 0 60 0 60 -915 0 -915 0 0 -60z"/>
<path d="M5930 4992 c0 -34 -4 -63 -9 -67 -5 -3 -15 -22 -22 -43 -20 -63 -85
-142 -212 -260 -113 -106 -219 -182 -253 -182 -31 0 -3 140 57 280 33 79 36
98 13 107 -17 6 -76 -52 -237 -233 -138 -154 -177 -207 -163 -222 15 -15 58
17 106 79 30 39 92 110 138 158 79 82 82 84 68 46 -21 -57 -36 -138 -36 -195
0 -51 15 -70 55 -70 39 0 129 56 212 133 196 182 235 228 283 329 34 72 42
166 15 188 -13 11 -15 5 -15 -48z"/>
<path d="M4857 4953 c-52 -44 -179 -182 -270 -294 -24 -30 -56 -55 -90 -70
-60 -26 -119 -49 -129 -49 -18 0 -6 32 22 62 37 38 38 60 4 87 -30 24 -82 27
-135 10 -46 -16 -146 -78 -153 -94 -7 -19 -132 -99 -187 -119 -81 -31 -83 -20
-13 84 70 104 67 99 55 119 -13 20 -56 3 -147 -59 -42 -27 -77 -50 -79 -50 -1
0 0 20 3 45 4 36 1 46 -12 51 -22 9 -27 3 -41 -53 -7 -27 -20 -51 -31 -57 -10
-6 -31 -18 -46 -28 -50 -33 -100 -59 -142 -73 -75 -27 -74 -20 10 70 91 96
101 112 83 131 -13 12 -24 5 -88 -58 -92 -91 -124 -137 -119 -175 2 -23 8 -29
34 -31 28 -3 104 21 198 62 l38 17 -21 -27 c-27 -35 -27 -54 2 -54 14 0 52 29
103 78 44 42 96 86 114 96 l34 19 -28 -49 c-16 -27 -34 -56 -41 -64 -7 -8 -16
-29 -20 -47 -6 -29 -4 -33 19 -39 33 -8 84 9 184 63 72 38 82 42 82 25 0 -45
76 -67 147 -42 27 9 26 8 -7 -18 -74 -58 -227 -220 -262 -277 -52 -86 -65
-140 -45 -187 14 -32 21 -38 47 -38 101 0 176 102 337 460 9 19 19 42 23 50 7
16 177 103 191 98 4 -2 -8 -25 -27 -53 -35 -53 -44 -95 -19 -95 8 0 42 33 75
73 56 66 220 220 227 213 1 -1 -26 -47 -62 -102 -66 -101 -78 -140 -50 -164
46 -39 285 63 285 121 0 27 -27 24 -62 -7 -45 -37 -123 -74 -157 -74 -25 0
-28 3 -23 23 3 12 30 59 61 105 94 140 98 149 80 167 -14 14 -23 11 -92 -34
-42 -28 -77 -47 -77 -42 0 4 65 75 145 157 80 82 145 154 145 161 0 23 -27 14
-73 -24z m-513 -296 c17 -12 17 -14 3 -20 -9 -3 -27 -28 -41 -54 -29 -56 -52
-74 -124 -97 -85 -28 -105 -4 -57 67 29 42 88 83 149 102 54 17 50 17 70 2z
m-175 -395 c-57 -114 -121 -216 -154 -243 -11 -9 -31 -26 -44 -38 -35 -31 -46
-21 -46 40 1 48 6 62 52 129 70 102 232 257 241 230 2 -6 -20 -60 -49 -118z"/>
<path d="M3075 4959 c-177 -33 -240 -53 -243 -76 -2 -16 8 -24 60 -42 35 -13
83 -30 108 -39 25 -8 54 -22 65 -29 11 -7 27 -13 37 -13 10 0 18 -4 18 -10 0
-5 16 -17 36 -26 20 -10 54 -39 75 -67 32 -40 39 -57 39 -92 0 -126 -195 -201
-371 -145 -88 29 -125 57 -114 89 6 19 13 22 42 19 50 -4 55 19 7 28 -20 4
-49 3 -63 -2 -21 -8 -27 -17 -29 -50 -3 -36 1 -45 33 -72 89 -79 292 -96 417
-34 93 46 110 67 116 150 4 66 3 72 -27 116 -18 25 -60 65 -94 88 -57 39 -222
118 -247 118 -5 0 -10 4 -10 8 0 11 75 29 199 47 132 20 202 17 243 -7 l31
-20 -31 -25 c-30 -23 -43 -53 -24 -53 5 0 28 14 50 30 49 35 56 74 21 106 -30
27 -207 29 -344 3z"/>
<path d="M3674 4886 c-7 -31 1 -46 26 -46 25 0 32 13 24 45 -8 33 -41 34 -50
1z"/>
<path d="M7544 4896 c-10 -27 1 -51 24 -54 21 -3 23 0 20 30 -3 35 -33 52 -44
24z"/>
<path d="M6434 4882 c-6 -4 -25 -27 -42 -52 -62 -88 -67 -92 -140 -101 -88
-10 -112 -18 -112 -37 0 -12 11 -14 70 -9 l70 6 -34 -67 c-51 -101 -60 -145
-41 -186 26 -55 92 -67 188 -35 48 16 62 18 68 7 5 -7 9 -16 9 -20 0 -16 62
-7 117 17 53 24 59 25 88 11 72 -34 205 21 304 124 37 39 70 68 74 64 13 -13
7 -37 -18 -70 -66 -86 -51 -124 49 -124 34 1 72 7 86 15 33 19 37 19 43 -5 10
-38 85 -25 214 38 l62 30 9 -28 c23 -63 165 -78 257 -26 l45 25 26 -24 c34
-32 82 -40 152 -26 125 24 272 93 272 126 0 21 -13 19 -68 -9 -86 -43 -207
-72 -185 -43 29 36 104 191 99 203 -11 30 -34 17 -274 -150 -72 -50 -163 -96
-190 -96 -4 0 -14 4 -22 9 -11 8 -6 17 28 48 34 30 48 54 67 111 30 88 26 106
-23 97 -47 -9 -105 -47 -139 -91 -15 -21 -39 -48 -53 -62 -27 -27 -147 -87
-195 -98 l-30 -7 26 29 c118 134 139 160 139 175 0 38 -24 28 -93 -40 -82 -80
-154 -136 -192 -151 -29 -11 -78 -13 -88 -4 -3 3 10 29 29 56 19 28 34 53 34
57 -1 21 -39 126 -47 128 -6 2 -51 -40 -100 -94 -82 -89 -97 -101 -162 -125
-68 -27 -111 -35 -111 -22 0 4 18 26 40 50 42 45 53 90 25 100 -20 8 -79 -43
-100 -87 -13 -27 -30 -42 -75 -62 -63 -30 -90 -34 -90 -14 2 58 163 201 242
213 34 6 35 5 30 -21 -6 -34 13 -31 41 7 21 28 17 62 -9 72 -21 8 -88 -12
-148 -45 -52 -28 -171 -139 -181 -168 -6 -19 -94 -59 -148 -68 -24 -4 -48 -1
-64 8 -22 12 -24 18 -20 53 6 42 109 206 130 207 145 6 347 30 347 40 0 18
-27 20 -159 8 -76 -6 -144 -10 -151 -7 -7 2 1 22 23 53 26 39 32 55 26 73 -9
24 -10 25 -25 14z m1224 -274 c-49 -88 -131 -148 -107 -78 15 41 87 120 110
120 20 0 20 -1 -3 -42z m328 -50 c-31 -53 -72 -98 -89 -98 -7 0 -22 7 -33 15
-16 13 -17 16 -4 24 8 6 44 32 80 59 36 28 67 48 68 47 2 -2 -8 -23 -22 -47z"/>
<path d="M6025 4700 c-12 -4 -27 -15 -35 -25 -7 -9 -30 -25 -49 -35 -50 -25
-116 -154 -107 -206 7 -33 9 -34 51 -34 24 0 55 4 69 10 32 12 102 74 138 124
15 22 38 44 50 50 13 6 24 20 26 30 3 16 0 18 -22 12 -22 -5 -26 -2 -32 21
-13 55 -43 72 -89 53z m45 -75 c0 -22 -4 -25 -37 -25 l-38 0 25 24 c32 32 50
32 50 1z m-52 -70 c17 0 32 -1 32 -2 0 -6 -60 -60 -89 -80 -36 -24 -81 -31
-81 -11 0 6 14 33 31 60 27 41 35 47 53 41 11 -4 36 -8 54 -8z"/>
</g>
</svg>
